<svg viewBox="0 0 414 92" fill="none" xmlns="http://www.w3.org/2000/svg">
<path fill-rule="evenodd" clip-rule="evenodd" d="M0 0L9 8.90323C17 18.5484 35 37.0968 52 48.9677C69 61.5806 86 67.5161 104 63.0645C121 58.6129 138 43.0323 155 46C173 48.9677 190 70.4839 207 81.6129C224 92 242 92 259 89.0323C276 86.0645 293 79.3871 311 67.5161C328 54.9032 345 37.0968 362 40.0645C380 43.0323 397 67.5161 405 79.3871L414 92H405C397 92 380 92 362 92C345 92 328 92 311 92C293 92 276 92 259 92C242 92 224 92 207 92C190 92 173 92 155 92C138 92 121 92 104 92C86 92 69 92 52 92C35 92 17 92 9 92H0V0Z" fill="white"/>
</svg>
