<svg viewBox="0 0 389 111" fill="none" xmlns="http://www.w3.org/2000/svg">
<path fill-rule="evenodd" clip-rule="evenodd" d="M-108 0L-97.1957 10.7419C-87.5918 22.379 -65.9831 44.7581 -45.5749 59.0806C-25.1667 74.2984 -4.75845 81.4597 16.8502 76.0887C37.2585 70.7177 57.6667 51.9194 78.0749 55.5C99.6836 59.0806 120.092 85.0403 140.5 98.4677C160.908 111 182.517 111 202.925 107.419C223.333 103.839 243.742 95.7823 265.35 81.4597C285.758 66.2419 306.167 44.7581 326.575 48.3387C348.184 51.9194 368.592 81.4597 378.196 95.7823L389 111H378.196C368.592 111 348.184 111 326.575 111C306.167 111 285.758 111 265.35 111C243.742 111 223.333 111 202.925 111C182.517 111 160.908 111 140.5 111C120.092 111 99.6836 111 78.0749 111C57.6667 111 37.2585 111 16.8502 111C-4.75845 111 -25.1667 111 -45.5749 111C-65.9831 111 -87.5918 111 -97.1957 111H-108V0Z" fill="#8BB9F6"/>
</svg>
